<?xml version="1.0" encoding="UTF-8" standalone="no"?><svg id="Layer_1" data-name="Layer 1" xmlns="http://www.w3.org/2000/svg" viewBox="0 0 500 500"><defs><style>.cls-1{fill:red;}</style></defs><path class="cls-1" d="M259,94c5,.41,9.92.73,14.86,1.24q52.89,5.51,92.28,41.25c31.74,28.87,49.78,64.82,53.1,107.53,3.4,43.73-8.77,83.08-37,116.89-29.11,34.85-66.58,54.64-111.83,58.3-43.71,3.54-83.07-8.66-116.94-36.79-32.85-27.29-52.13-62.35-57.79-104.76-.62-4.62-.68-9.31-1-14-.14-1.79-.41-3.56-.63-5.34v-1.91c.44-5.7.72-11.41,1.34-17.09a158.54,158.54,0,0,1,26.69-72.81,9.63,9.63,0,0,1,5.72-3.89c4.38-.7,7.35,4.46,5.13,8.66-2,3.83-4.56,7.41-6.71,11.19a147.63,147.63,0,0,0-19.53,74.26q0,57.33,37.82,100.13c25.87,29.28,58.55,45.87,97.38,49.94,29.12,3.06,57.17-1.62,83.08-15.31,47.95-25.33,75.88-65.19,81.8-119.21,4.61-42-7.25-79.82-34.46-112.23-25.08-29.87-57.4-47.54-96.12-52.37-36.58-4.56-70.73,3.14-101.81,23.38-.89.58-1.77,1.18-2.71,1.67-3.31,1.69-6.26,1-8.12-1.75a5.64,5.64,0,0,1,1.73-8.11c4.36-3,8.85-5.88,13.48-8.44a163.14,163.14,0,0,1,65.08-19.65c4-.36,8-.55,12-.82Z"/><path class="cls-1" d="M256.76,387.87c-73.68-.15-130.91-60.86-130.49-131.31.44-73.09,60.18-130.83,131.5-130.33,73.94.51,130.55,61.17,130.17,131.35C387.54,330.9,327.31,388.38,256.76,387.87Zm87.31-130.73a87,87,0,0,0-9-38.47,7,7,0,0,0-6.05-4.35,562.82,562.82,0,0,0-81.56-4.56,603.77,603.77,0,0,0-62.18,4.55,7.11,7.11,0,0,0-6.16,4.21c-8.12,16.32-10.24,33.53-8,51.45a6,6,0,0,0,4,5.21,98.31,98.31,0,0,1,31.29,21.53A100.17,100.17,0,0,1,231,336.46a6.94,6.94,0,0,0,5.7,5.19,95.1,95.1,0,0,0,41.06,0,6.85,6.85,0,0,0,5.5-5c9.92-28.44,28.73-48.86,56-61.5,2.28-1.05,3.6-2.53,3.81-5C343.39,265.8,343.72,261.47,344.07,257.14Zm19-49.41c.26-.78.87-1.68.77-2.49a9.49,9.49,0,0,0-1.3-2.88,118.28,118.28,0,0,0-29.85-36.86c-25.7-21-55.26-29.72-88.13-26.47-29.87,2.95-54.9,16.09-75.29,38A113.14,113.14,0,0,0,151,203.73a14.52,14.52,0,0,0-.79,3.26c1.1.1,2.19.22,3.29.29a3.86,3.86,0,0,0,.94-.16c32.69-6.4,65.74-9.21,99-9.78,11.43-.2,22.89.63,34.32,1.1,22.84.95,45.44,3.93,67.93,7.87C357.85,206.7,360,207.14,363.11,207.73ZM224,362.33a85,85,0,0,0-11.7-38.12c-14.84-25.27-36.88-40.08-65.72-44.83-6-1-6.54-.44-5,5.44q16.35,61.64,76,84.26C224,371.48,224.06,371.29,224,362.33ZM290.19,364v1.27c0,5.81.18,6,5.71,4.07a118.8,118.8,0,0,0,77-85.66c1-4.44.42-5.11-3.88-4.5-24.07,3.44-43.91,14.45-59.19,33.39A87.79,87.79,0,0,0,290.19,364ZM138.6,255.16c0,2.55,0,5.09,0,7.63s1,3.64,3.52,3.91c4.21.46,8.39,1.17,12.58,1.84,3.56.57,3.88.41,3.7-3.29-.73-15.19.8-30,6.49-44.3,1-2.62.39-3.43-2.35-3-4.91.82-9.77,2-14.69,2.73-3.17.5-4.76,2.17-5.48,5.24C140.11,235.57,138.2,245.21,138.6,255.16Zm217.17,3.07c0,1.9.12,4.76,0,7.62-.13,2.39.62,3.28,3.12,2.83,4.48-.79,9-1.45,13.5-2,2.21-.27,3.15-1.36,3.24-3.51a120.48,120.48,0,0,0-4-38.08,5.1,5.1,0,0,0-4.25-4.13c-5-.92-10-2-15-2.87-3.6-.63-4.09,0-2.83,3.44C353.77,233.05,356.32,244.89,355.77,258.23ZM257.18,376c5.71-.47,11.62-.94,17.53-1.47,2.24-.2,3.31-1.34,3.31-3.76,0-4.45.2-8.9.51-13.34.18-2.7-.92-3.42-3.39-3a107.38,107.38,0,0,1-36.08,0c-2.95-.49-3.49.18-3.31,3.28.23,4.13.58,8.27.44,12.39-.11,3.05,1.16,4.3,3.95,4.52Z"/><path class="cls-1" d="M146.7,140.61a5.55,5.55,0,0,1,5.44,5.82,6,6,0,0,1-6.07,5.68c-3.43-.12-5.71-2.85-5.42-6.47C140.92,142.31,143.21,140.4,146.7,140.61Z"/><path class="cls-1" d="M225.89,256.79c-1-16,14.61-31.28,31.49-31.16,16.39.12,31.29,15.21,31.17,31.72-.13,16-14.87,31.3-31.73,31.17C241.15,288.39,224.73,274,225.89,256.79Zm50.36.38c0-11.34-7.83-19.24-19.12-19.24S238,245.74,238,256.8c-.06,11.4,7.73,19.39,18.94,19.42S276.24,268.3,276.25,257.17Z"/></svg>