<?xml version="1.0" encoding="UTF-8" standalone="no"?><svg id="Layer_1" data-name="Layer 1" xmlns="http://www.w3.org/2000/svg" viewBox="0 0 500 500"><defs><style>.cls-1{fill:red;}</style></defs><path class="cls-1" d="M408.71,271.11a46.22,46.22,0,0,1-2.79,6.15,16.88,16.88,0,0,1-14.82,8.13c-6,.07-11.92,0-18.43,0,2.31,2.37,4.48,4.13,6.05,6.33,1.29,1.82,2.63,4.14,2.65,6.24q.25,47.85.1,95.7c0,12.58-9.23,21.62-21.82,21.73-5.27,0-10.54.09-15.81,0A21.11,21.11,0,0,1,323,395.29c-.21-3.38,0-6.78,0-10.33H176.13c0,2.84,0,5.59,0,8.35-.11,13-9.16,22-22.11,22.11-5.27,0-10.54.09-15.81,0a21.17,21.17,0,0,1-20.57-19.1c-.18-1.74-.22-3.51-.23-5.27,0-29.83.1-59.66-.11-89.49,0-5.09,1.09-9.09,5.25-12.12a56.89,56.89,0,0,0,4.29-4c-6.48,0-12.09,0-17.7,0a17.65,17.65,0,0,1-11-3.54c-3.35-2.51-6-5.75-6.39-9.89a58.17,58.17,0,0,1,.08-15.09c1.28-7.58,8.27-12.9,16-13.16,3.41-.11,6.82-.06,10.23,0A17.11,17.11,0,0,1,133.09,252c2.68,4.14,5.24,8.35,8.14,13,1.76-4.25,3.34-8,4.89-11.84,2.31-5.65,4.59-11.31,6.9-17,4.21-10.27,11.66-15.26,22.82-15.28,4,0,8.07.06,12.1,0,1.12,0,3.09-.38,3.18-.85a8.67,8.67,0,0,0-.33-4.91c-1.55-3.26-3.78-6.18-5.38-9.42C161,155.87,197.72,97.25,253.09,98.34c31.21.61,53.44,16.09,67.23,44,1.3,2.64,1.43,5.19-.56,7.54-1.72,2-4.22,2.9-6.4,1.74a11.73,11.73,0,0,1-4.61-5C301.43,131.79,290.34,121,275,114.91a62.08,62.08,0,0,0-73.32,93.7c2.6,3.62,3.52,7,2.4,11.23-.92,3.45-1.37,7-2.1,11,4.22-1.24,8-2.13,11.67-3.49s7.22-1.38,10.59.94a13.1,13.1,0,0,0,2.33,1c.54-6,1.15-11.72,1.48-17.46.05-.78-1.13-1.82-2-2.44-27.31-20.12-23.54-61.92,6.94-76.62a33.09,33.09,0,0,1,3.13-1.34c5-1.84,9,.82,9.1,6.19.11,8.39,0,16.78,0,25.17v3.86h14.41V163.1c0-8.29,0-16.57,0-24.86,0-6.39,4-9,9.81-6.52,32.34,14,37.25,56.56,9,77.68-.86.64-1.86,1.89-1.81,2.8.3,5.56.87,11.1,1.44,17.62,4.77-3.11,9.25-5.62,13.27-8.72,7.74-6,13.35-13.73,17.55-22.57a11.34,11.34,0,0,1,4.09-4.75c2.15-1.26,4.66-.67,6.54,1.2a5.74,5.74,0,0,1,1.21,7.14c-2.88,5.36-6,10.57-9.11,15.82-.5.86-1.16,1.62-2.11,2.94h13.11c12.14,0,19.28,4.79,23.87,16.05,3.83,9.37,7.63,18.75,11.65,28.63,2.63-4.18,5.15-7.93,7.4-11.85,4.05-7.07,10-10.46,18.16-10,2.27.12,4.55,0,6.82,0,8.92.11,15,4.7,17.6,13.29a6.87,6.87,0,0,0,.55,1.08ZM193,372.38c0-3.2-.07-6,0-8.77.34-11.91,10.84-22.25,22.62-22.26q34.1,0,68.2,0c12.09,0,22.48,10.37,22.61,22.5,0,2.76,0,5.52,0,8.39,1.33.06,2.24.13,3.15.13q23.1,0,46.2,0c6,0,8.85-2.74,9.52-8.71.91-8,2.09-16,2.82-24,.68-7.35.91-14.74,1.33-22.11l-.9-.18c-.61.77-1.24,1.52-1.81,2.31q-6,8.31-12,16.63A17.15,17.15,0,0,1,340,344q-7.44,0-14.88,0a17.13,17.13,0,0,1-14.58-7.44c-2.51-3.41-4.89-6.94-7.58-10.21a5.56,5.56,0,0,0-3.75-1.92q-49.76-.17-99.51,0a5.54,5.54,0,0,0-3.74,1.95c-2.75,3.36-5.16,7-7.77,10.46a16.91,16.91,0,0,1-14.1,7.14c-5.06,0-10.13,0-15.19,0a17,17,0,0,1-14.56-7.45c-3-4.18-6-8.41-9-12.61L130,316.57c-.1,1.89-.16,2.89-.2,3.89-.47,14.68,2.45,29.05,4,43.54.63,5.9,3.52,8.36,9.43,8.37q14.41,0,28.83,0Zm-41.2-99.63H347.69c-4.44-10.93-8.79-21.53-13.05-32.17-2-5.05-5.71-7.32-11.07-7.28-8.38.06-16.75-.05-25.12.07a8.67,8.67,0,0,0-4.28,1.29q-35.49,22.35-73.91,5.62a8.08,8.08,0,0,0-4.93-.36c-6.29,1.67-12.48,3.68-18.73,5.47-5.85,1.67-9.61-1.75-8.67-7.79.21-1.3.45-2.6.71-4.13-5.45,0-10.62-.26-15.74.09-3.9.26-6.55,2.78-8,6.43q-6.31,15.51-12.63,31A13.28,13.28,0,0,0,151.77,272.75Zm-15.12,21.5a3.3,3.3,0,0,0,.88.4c15.53,4.62,31,9.33,46.6,13.79,5,1.44,10.2,3.15,15.32,3.2,33.07.28,66.14.19,99.22.08A39.25,39.25,0,0,0,309,310.21c10.53-2.93,21-6.16,31.47-9.29,7.49-2.24,15-4.5,22.6-6.79-2.12-2.21-4.13-4.12-5.91-6.22s-3.62-2.57-6.21-2.56q-54.72.13-109.45.06-47,0-93.95,0c-1.18,0-2.74,0-3.45.71C141.43,288.72,139.06,291.57,136.65,294.25Zm129.28-60.76c-.67-8-1.18-15.87-2.05-23.66-.45-4,.74-6.65,4.29-8.69A31.8,31.8,0,0,0,284,166.89a31.31,31.31,0,0,0-11.72-19.18c-.08,1.56-.16,2.55-.17,3.55,0,6.73,0,13.46,0,20.19,0,5.57-2.19,7.74-7.68,7.75q-11.94,0-23.87,0c-5.55,0-7.62-2.08-7.66-7.73,0-6.73,0-13.46,0-20.19,0-1.06-.11-2.12-.21-3.8-1.29,1.09-2.08,1.7-2.79,2.39a32.23,32.23,0,0,0,6.27,51c3.62,2.11,5.18,4.67,4.62,8.84s-.81,8.65-1.17,13c-.29,3.57-.55,7.14-.82,10.73A60.92,60.92,0,0,0,265.93,233.49Zm28,138.72c0-3.23.2-6.33,0-9.38-.33-4-5.54-9-9.25-9-23.34,0-46.67-.05-70,.08a8.19,8.19,0,0,0-4.88,2.09c-5,4.42-5,10.21-4.08,16.25Zm-163.87,9.08c0,5-.3,9.74.08,14.41a8.2,8.2,0,0,0,8.07,7.22c5.66.16,11.34.16,17,0a8.6,8.6,0,0,0,8.35-7.7c.29-3.35.06-6.75.06-10.08C152.45,383.47,140.87,387.54,130.09,381.29Zm239-.4c-5.34,3.8-10.85,4.05-16.49,3.94s-11.31,0-17.1,0a18.38,18.38,0,0,0-.21,2.08c0,2.69-.09,5.4.16,8.07a8.58,8.58,0,0,0,8.41,8q8.37.21,16.74,0a8.64,8.64,0,0,0,8.46-8.29C369.19,390.31,369.05,386,369.05,380.89ZM139.24,308.11c5.58,7.73,10.55,14.79,15.77,21.67.77,1,2.66,1.59,4.07,1.65,4.84.2,9.7.18,14.55,0a5.91,5.91,0,0,0,3.88-1.41c2.29-2.56,4.2-5.47,6.52-8.57ZM315,321.49c1.88,2.61,3.62,4.9,5.24,7.27a6,6,0,0,0,5.5,2.78c4.64-.1,9.31.22,13.92-.15a8,8,0,0,0,5.1-2.67c4.09-5.18,7.81-10.66,11.67-16,.91-1.28,1.8-2.56,3.18-4.52ZM131.52,272.94c-1.77-2.85-3.15-5.15-4.59-7.41-7.11-11.11-3.89-9.22-17.29-9.41-.41,0-.82,0-1.23,0a4.94,4.94,0,0,0-4.87,5,59.86,59.86,0,0,0,0,6.83c.17,2.85,1.8,4.82,4.63,4.89C115.77,273.06,123.38,272.94,131.52,272.94Zm236.69,0H385.7c10.32,0,10.86-.5,10.53-10.84a7.79,7.79,0,0,0-1.54-4.49c-2.15-2.57-15-2.38-16.9.31C374.5,262.66,371.59,267.62,368.21,273Z"/><path class="cls-1" d="M326.79,172.91a6.17,6.17,0,1,1-12.34-.36,6.17,6.17,0,0,1,12.34.36Z"/></svg>