<?xml version="1.0" encoding="utf-8"?>
<!-- Generator: Adobe Illustrator 27.3.1, SVG Export Plug-In . SVG Version: 6.00 Build 0)  -->
<svg version="1.1" id="Layer_1" xmlns="http://www.w3.org/2000/svg" xmlns:xlink="http://www.w3.org/1999/xlink" x="0px" y="0px"
	 viewBox="0 0 500 500" style="enable-background:new 0 0 500 500;" xml:space="preserve">
<style type="text/css">
	.st0{fill:#FF0000;}
	.st1{fill:#FFFFFF;}
</style>
<path class="st0" d="M217.44,58c2,0,3.99,0,5.99,0c6.39,2.87,8.44,7.96,8.23,14.72c-0.3,9.7-0.08,19.41-0.08,29.12
	c0,1.31,0,2.62,0,3.91c12.8,0,25.06,0,37.59,0c0-11.18,0.22-22.11-0.08-33.03c-0.19-6.77,1.83-11.86,8.23-14.72c2,0,3.99,0,5.99,0
	c6.38,2.61,8.67,7.42,8.4,14.19c-0.34,8.46-0.08,16.95-0.08,25.43c0,2.7,0,5.4,0,8.19c12.78,0,25.07,0,37.77,0c0-1.54,0-2.89,0-4.23
	c0-9.85,0.2-19.7-0.07-29.54c-0.18-6.75,2.06-11.62,8.62-14.03c1.75,0,3.49,0,5.24,0c6.58,2.37,8.88,7.23,8.73,13.97
	c-0.22,9.96-0.06,19.94-0.05,29.9c0,1.31,0.13,2.61,0.21,4.13c10.13,0,19.83-0.04,29.54,0.01c7.67,0.05,12.27,4.69,12.37,12.38
	c0.05,3.86,0.01,7.73,0.01,11.59c0,5.94,0,11.88,0,18.17c1.82,0,3.16,0,4.51,0c9.84,0,19.69,0.18,29.53-0.06
	c6.76-0.17,11.59,2.15,13.97,8.72c0,1.75,0,3.49,0,5.24c-2.43,6.54-7.28,8.91-14.04,8.61c-5.97-0.26-11.96-0.06-17.95-0.06
	c-5.21,0-10.42,0-15.72,0c0,12.79,0,25.15,0,37.76c11.38,0,22.46,0.23,33.53-0.09c6.75-0.19,11.58,2.01,14.17,8.41
	c0,2,0,3.99,0,5.99c-2.88,6.37-7.95,8.44-14.73,8.22c-9.7-0.32-19.42-0.08-29.12-0.08c-1.31,0-2.62,0-3.9,0c0,12.82,0,25.08,0,37.62
	c11.18,0,22.12,0.23,33.04-0.08c6.78-0.2,11.84,1.85,14.71,8.22c0,2,0,3.99,0,5.99c-2.62,6.36-7.42,8.67-14.18,8.41
	c-8.46-0.33-16.95-0.08-25.43-0.08c-2.7,0-5.4,0-8.19,0c0,12.78,0,25.07,0,37.76c1.55,0,2.89,0,4.23,0c9.85,0,19.7,0.21,29.54-0.07
	c6.77-0.19,11.59,2.11,14.02,8.63c0,1.75,0,3.49,0,5.24c-2.38,6.58-7.24,9.01-13.99,8.7c-4.85-0.23-9.73-0.04-14.59-0.04
	c-6.33,0-12.66,0-19.23,0c-0.07,1.6-0.17,2.82-0.18,4.03c-0.01,8.11,0,16.22-0.01,24.32c-0.01,9.48-4.26,13.78-13.63,13.79
	c-8.11,0.01-16.22,0-24.32,0c-1.32,0-2.64,0-4.18,0c0,2.56,0,4.55,0,6.53c0,9.6-0.01,19.21,0,28.81c0.01,5.29-1.7,9.63-6.89,11.76
	c-7.71,3.17-15.33-1.97-15.5-10.65c-0.21-10.72-0.06-21.45-0.07-32.18c0-1.33,0-2.67,0-4.06c-12.8,0-25.09,0-37.77,0
	c0,1.54,0,2.89,0,4.23c0,10.6,0.04,21.21-0.02,31.81c-0.03,5.59-2.64,9.41-7.29,11.03c-7.82,2.74-15.03-2.58-15.12-11.33
	c-0.11-10.6-0.03-21.21-0.03-31.81c0-1.31,0-2.63,0-3.86c-12.84,0-25.11,0-37.59,0c0,12,0.05,23.71-0.02,35.43
	c-0.05,7.41-4.58,12.25-11.25,12.26c-6.74,0.01-11.15-4.75-11.18-12.23c-0.05-10.48-0.01-20.96-0.01-31.43c0-1.33,0-2.66,0-4.31
	c-11.8,0-23.13-0.01-34.45,0.01c-0.97,0-1.94,0.13-3.32,0.23c0,1.5,0,2.84,0,4.19c0,10.48-0.01,20.96,0,31.43
	c0,5.21-1.94,9.29-6.97,11.3c-7.84,3.13-15.3-2.2-15.45-11.2c-0.18-10.6-0.04-21.2-0.06-31.81c0-1.31-0.12-2.62-0.2-4.15
	c-10.13,0-19.84,0.05-29.55-0.01c-7.68-0.05-12.28-4.71-12.36-12.42c-0.05-5.24-0.01-10.48-0.01-15.72c0-4.57,0-9.15,0-14
	c-1.87,0-3.22,0-4.58,0c-10.35,0-20.71,0-31.06,0c-4.67,0-8.6-1.44-10.95-5.78c-4.16-7.69,0.95-16.37,10.03-16.58
	c10.72-0.25,21.45-0.07,32.18-0.08c1.34,0,2.68,0,4.05,0c0-12.82,0-25.19,0-37.76c-1.69,0-3.05,0-4.41,0
	c-10.6,0-21.21,0.05-31.81-0.04c-5.34-0.04-9.08-2.67-10.72-7.19c-2.82-7.78,2.51-15.11,11.22-15.2c10.6-0.11,21.21-0.03,31.81-0.03
	c1.32,0,2.64,0,3.99,0c0-12.78,0-25.06,0-37.48c-1.09-0.05-1.94-0.13-2.8-0.13c-11.1-0.01-22.2,0.08-33.3-0.04
	c-7.01-0.08-11.76-4.92-11.63-11.47c0.12-6.42,4.8-10.82,11.74-10.92c5.11-0.08,10.23-0.02,15.34-0.02c6.83,0,13.65,0,20.69,0
	c0-12.69,0-24.99,0-37.76c-1.42,0-2.76,0-4.1,0c-10.23,0-20.46,0.18-30.68-0.11c-2.96-0.08-6.25-0.9-8.73-2.44
	c-4.04-2.5-5.18-7.7-3.62-12.34c1.59-4.74,5.21-7.43,10.89-7.5c10.73-0.14,21.45-0.04,32.18-0.06c1.32,0,2.65-0.12,4.27-0.2
	c0-1.54,0-2.77,0-3.99c0-8.23-0.01-16.47,0-24.7c0.02-8.88,4.43-13.23,13.41-13.25c4.74-0.01,9.48,0,14.22,0c4.7,0,9.41,0,14.5,0
	c0-1.77,0-3.11,0-4.45c0-9.85,0.17-19.71-0.06-29.56c-0.16-6.75,2.13-11.63,8.73-13.99c1.75,0,3.49,0,5.24,0
	c6.55,2.42,8.87,7.28,8.61,14.04c-0.27,7.1-0.06,14.21-0.06,21.31c0,4.09,0,8.17,0,12.35c12.79,0,25.16,0,37.77,0
	c0-11.37,0.24-22.46-0.09-33.52C208.83,65.41,211.05,60.6,217.44,58z M129.42,128.67c0,80.71,0,161.21,0,241.91
	c80.71,0,161.21,0,241.9,0c0-80.71,0-161.21,0-241.91C290.61,128.67,210.12,128.67,129.42,128.67z"/>
<path class="st1" d="M157.56,58c-6.61,2.36-8.89,7.24-8.73,13.99c0.23,9.85,0.06,19.71,0.06,29.56c0,1.34,0,2.68,0,4.45
	c-5.09,0-9.79,0-14.5,0c-4.74,0-9.48-0.01-14.22,0c-8.98,0.02-13.39,4.37-13.41,13.25c-0.02,8.23,0,16.47,0,24.7
	c0,1.22,0,2.45,0,3.99c-1.63,0.08-2.95,0.2-4.27,0.2c-10.73,0.02-21.46-0.08-32.18,0.06c-5.67,0.07-9.29,2.76-10.89,7.5
	c-1.56,4.64-0.42,9.84,3.62,12.34c2.48,1.54,5.78,2.36,8.73,2.44c10.22,0.29,20.45,0.11,30.68,0.11c1.34,0,2.68,0,4.1,0
	c0,12.77,0,25.07,0,37.76c-7.03,0-13.86,0-20.69,0c-5.11,0-10.23-0.06-15.34,0.02c-6.94,0.11-11.61,4.5-11.74,10.92
	c-0.13,6.55,4.62,11.39,11.63,11.47c11.1,0.13,22.2,0.03,33.3,0.04c0.85,0,1.71,0.08,2.8,0.13c0,12.42,0,24.7,0,37.48
	c-1.35,0-2.67,0-3.99,0c-10.6,0-21.21-0.08-31.81,0.03c-8.71,0.09-14.04,7.41-11.22,15.2c1.64,4.52,5.38,7.15,10.72,7.19
	c10.6,0.08,21.21,0.03,31.81,0.04c1.36,0,2.72,0,4.41,0c0,12.57,0,24.94,0,37.76c-1.37,0-2.71,0-4.05,0
	c-10.73,0.01-21.46-0.16-32.18,0.08c-9.08,0.21-14.19,8.89-10.03,16.58c2.35,4.35,6.28,5.78,10.95,5.78c10.35,0,20.71,0,31.06,0
	c1.36,0,2.71,0,4.58,0c0,4.86,0,9.43,0,14c0,5.24-0.04,10.48,0.01,15.72c0.07,7.71,4.68,12.37,12.36,12.42
	c9.71,0.06,19.43,0.01,29.55,0.01c0.08,1.53,0.2,2.84,0.2,4.15c0.02,10.6-0.12,21.21,0.06,31.81c0.15,9,7.6,14.33,15.45,11.2
	c5.03-2.01,6.97-6.09,6.97-11.3c-0.01-10.48,0-20.96,0-31.43c0-1.34,0-2.69,0-4.19c1.38-0.1,2.35-0.22,3.32-0.23
	c11.33-0.01,22.65-0.01,34.45-0.01c0,1.65,0,2.98,0,4.31c0,10.48-0.03,20.96,0.01,31.43c0.03,7.48,4.44,12.25,11.18,12.23
	c6.67-0.01,11.2-4.85,11.25-12.26c0.07-11.71,0.02-23.43,0.02-35.43c12.48,0,24.75,0,37.59,0c0,1.23,0,2.54,0,3.86
	c0,10.6-0.08,21.21,0.03,31.81c0.09,8.75,7.3,14.07,15.12,11.33c4.64-1.62,7.25-5.44,7.29-11.03c0.06-10.6,0.02-21.21,0.02-31.81
	c0-1.34,0-2.69,0-4.23c12.68,0,24.97,0,37.77,0c0,1.4,0,2.73,0,4.06c0.01,10.73-0.14,21.46,0.07,32.18
	c0.17,8.67,7.79,13.81,15.5,10.65c5.19-2.13,6.9-6.48,6.89-11.76c-0.01-9.6,0-19.21,0-28.81c0-1.99,0-3.98,0-6.53
	c1.54,0,2.86,0,4.18,0c8.11,0,16.22,0.01,24.32,0c9.37-0.01,13.62-4.31,13.63-13.79c0.01-8.11-0.01-16.22,0.01-24.32
	c0-1.21,0.1-2.43,0.18-4.03c6.57,0,12.9,0,19.23,0c4.86,0,9.74-0.18,14.59,0.04c6.76,0.31,11.62-2.12,13.99-8.7
	c0,33.19,0,66.37,0,99.56c-128,0-256,0-384,0c0-128,0-256,0-384C91.19,58,124.37,58,157.56,58z"/>
<path class="st1" d="M442,156.81c-2.38-6.56-7.2-8.89-13.97-8.72c-9.84,0.25-19.69,0.06-29.53,0.06c-1.34,0-2.69,0-4.51,0
	c0-6.28,0-12.23,0-18.17c0-3.86,0.04-7.73-0.01-11.59c-0.1-7.69-4.7-12.34-12.37-12.38c-9.7-0.06-19.41-0.01-29.54-0.01
	c-0.08-1.52-0.2-2.82-0.21-4.13c-0.02-9.97-0.17-19.94,0.05-29.9c0.15-6.74-2.15-11.6-8.73-13.97c32.94,0,65.87,0,98.81,0
	C442,90.94,442,123.87,442,156.81z"/>
<path class="st1" d="M217.44,58c-6.39,2.6-8.61,7.41-8.41,14.18c0.33,11.07,0.09,22.15,0.09,33.52c-12.62,0-24.98,0-37.77,0
	c0-4.18,0-8.27,0-12.35c0-7.11-0.21-14.22,0.06-21.31c0.26-6.75-2.06-11.61-8.61-14.04C181.01,58,199.22,58,217.44,58z"/>
<path class="st1" d="M337.95,58c-6.56,2.41-8.8,7.27-8.62,14.03c0.27,9.84,0.07,19.69,0.07,29.54c0,1.34,0,2.69,0,4.23
	c-12.7,0-24.99,0-37.77,0c0-2.79,0-5.49,0-8.19c0-8.48-0.26-16.96,0.08-25.43c0.27-6.76-2.02-11.58-8.4-14.19
	C301.52,58,319.74,58,337.95,58z"/>
<path class="st1" d="M442,216.69c-2.59-6.4-7.42-8.61-14.17-8.41c-11.07,0.32-22.15,0.09-33.53,0.09c0-12.61,0-24.97,0-37.76
	c5.3,0,10.51,0,15.72,0c5.98,0,11.98-0.21,17.95,0.06c6.76,0.3,11.61-2.07,14.04-8.61C442,180.26,442,198.48,442,216.69z"/>
<path class="st1" d="M442,337.2c-2.43-6.52-7.25-8.82-14.02-8.63c-9.84,0.28-19.69,0.07-29.54,0.07c-1.34,0-2.69,0-4.23,0
	c0-12.69,0-24.98,0-37.76c2.79,0,5.49,0,8.19,0c8.48,0,16.96-0.25,25.43,0.08c6.76,0.27,11.56-2.04,14.18-8.41
	C442,300.78,442,318.99,442,337.2z"/>
<path class="st1" d="M442,276.57c-2.88-6.38-7.93-8.42-14.71-8.22c-10.92,0.32-21.86,0.08-33.04,0.08c0-12.54,0-24.8,0-37.62
	c1.28,0,2.59,0,3.9,0c9.71,0,19.43-0.24,29.12,0.08c6.77,0.22,11.84-1.85,14.73-8.22C442,240.64,442,258.61,442,276.57z"/>
<path class="st1" d="M277.32,58c-6.41,2.86-8.42,7.95-8.23,14.72c0.3,10.92,0.08,21.86,0.08,33.03c-12.53,0-24.79,0-37.59,0
	c0-1.29,0-2.6,0-3.91c0-9.71-0.23-19.42,0.08-29.12c0.21-6.76-1.84-11.85-8.23-14.72C241.39,58,259.36,58,277.32,58z"/>
<path class="st1" d="M129.42,128.67c80.69,0,161.19,0,241.9,0c0,80.7,0,161.19,0,241.91c-80.69,0-161.19,0-241.9,0
	C129.42,289.88,129.42,209.39,129.42,128.67z"/>
</svg>
