<?xml version="1.0" encoding="utf-8"?>
<!-- Generator: Adobe Illustrator 27.3.1, SVG Export Plug-In . SVG Version: 6.00 Build 0)  -->
<svg version="1.1" id="Layer_1" xmlns="http://www.w3.org/2000/svg" xmlns:xlink="http://www.w3.org/1999/xlink" x="0px" y="0px"
	 viewBox="0 0 500 500" style="enable-background:new 0 0 500 500;" xml:space="preserve">
<style type="text/css">
	.st0{fill-rule:evenodd;clip-rule:evenodd;fill:#13355B;}
	.st1{fill:#FF0000;}
</style>
<path class="st1" d="M97.59,180.39c0-1.39,0-2.78,0-4.17c1.88-5.25,5.76-7.06,11.14-6.93c8.13,0.19,16.27-0.01,24.4,0.09
	c2.06,0.03,2.72-0.57,2.68-2.66c-0.12-6.84-0.06-13.69-0.04-20.53c0.02-6.74,3.57-10.34,10.24-10.36c5.95-0.02,11.9-0.01,17.86-0.01
	c5.41,0,5.41,0,5.41-5.5c0-7.54,0-15.08,0-22.62c0-3.81,1.05-7.06,4.68-8.96c6.24-3.27,12.97,0.75,13.13,8.06
	c0.19,8.73,0.12,17.46,0.02,26.19c-0.02,2.14,0.46,2.92,2.78,2.88c8.13-0.15,16.27-0.15,24.4,0c2.38,0.04,2.99-0.67,2.95-2.99
	c-0.13-8.73-0.09-17.46-0.03-26.19c0.03-4.23,2.13-7.19,5.76-8.48c6.2-2.2,11.97,2.03,12.04,8.99c0.1,8.63,0.11,17.26-0.03,25.89
	c-0.04,2.27,0.64,2.81,2.83,2.78c8.13-0.13,16.27-0.14,24.4,0.01c2.29,0.04,2.8-0.67,2.77-2.84c-0.12-8.53-0.05-17.06-0.05-25.59
	c0-3.6,1.12-6.66,4.39-8.54c6.05-3.49,13.3,0.52,13.42,7.57c0.15,8.83,0.14,17.66-0.01,26.48c-0.04,2.44,0.76,2.95,3.02,2.92
	c7.93-0.12,15.87-0.16,23.8,0.01c2.57,0.05,3.4-0.56,3.34-3.25c-0.18-8.43-0.05-16.86-0.07-25.29c-0.01-4.14,1.5-7.39,5.5-9.01
	c6.33-2.57,12.25,1.77,12.34,9.14c0.11,8.63,0.08,17.26-0.01,25.89c-0.02,1.96,0.61,2.53,2.53,2.5c6.84-0.1,13.69-0.05,20.53-0.04
	c6.91,0.02,10.45,3.54,10.47,10.43c0.02,6.45,0,12.9,0,19.34c0,3.74,0,3.74,3.89,3.74c2.48,0,4.96,0,7.44,0
	c5.75,0,11.51-0.01,17.26,0.01c4.13,0.02,7.36,1.59,8.93,5.62c2.41,6.17-1.73,12.06-8.71,12.18c-8.73,0.15-17.46,0.1-26.19,0
	c-2.07-0.02-2.7,0.58-2.68,2.67c0.11,8.13,0.15,16.27-0.02,24.4c-0.05,2.58,0.82,3.09,3.2,3.05c8.63-0.14,17.26-0.09,25.89-0.03
	c4.28,0.03,7.24,2.09,8.55,5.68c2.25,6.2-1.96,12.05-8.88,12.12c-8.63,0.09-17.26,0.09-25.89-0.02c-2.14-0.03-2.91,0.43-2.86,2.75
	c0.15,8.13,0.17,16.27-0.01,24.4c-0.05,2.51,0.87,2.88,3.06,2.86c8.43-0.11,16.86-0.04,25.29-0.05c3.11,0,5.94,0.74,7.91,3.33
	c2.23,2.93,2.62,6.18,1.07,9.53c-1.52,3.29-4.26,4.94-7.83,4.96c-8.93,0.07-17.86,0.09-26.78,0c-2.04-0.02-2.73,0.5-2.7,2.63
	c0.12,7.83,0.02,15.67,0.06,23.51c0.02,4.34-0.64,3.91,4,3.93c8.13,0.03,16.27,0.02,24.4,0.01c4.13-0.01,7.4,1.44,9.05,5.44
	c2.56,6.23-1.63,12.25-8.76,12.37c-8.63,0.14-17.26,0.11-25.89-0.01c-2.17-0.03-2.92,0.49-2.87,2.79
	c0.16,6.84,0.08,13.69,0.05,20.53c-0.03,6.67-3.63,10.22-10.36,10.24c-6.84,0.02-13.69,0.08-20.53-0.04
	c-2.12-0.04-2.67,0.65-2.64,2.69c0.1,8.13-0.09,16.27,0.09,24.4c0.12,5.36-1.72,9.23-6.94,11.12c-1.39,0-2.78,0-4.17,0
	c-5.18-1.94-7.01-5.76-6.86-11.16c0.23-8.12,0-16.26,0.1-24.38c0.03-2.07-0.58-2.7-2.67-2.68c-8.33,0.11-16.65,0.11-24.98,0
	c-2.01-0.03-2.48,0.66-2.46,2.55c0.09,8.13-0.16,16.26,0.11,24.38c0.18,5.38-1.63,9.19-6.68,11.28c-1.59,0-3.17,0-4.76,0
	c-5.25-2.33-6.73-6.54-6.55-12c0.25-7.81-0.02-15.64,0.12-23.45c0.04-2.27-0.64-2.81-2.83-2.77c-8.11,0.13-16.23,0.13-24.34,0
	c-2.17-0.03-2.88,0.48-2.83,2.76c0.15,7.91-0.12,15.84,0.12,23.75c0.16,5.38-1.48,9.41-6.54,11.71c-1.59,0-3.17,0-4.76,0
	c-5.24-2.12-6.88-6.11-6.69-11.57c0.28-8.02,0.02-16.06,0.11-24.09c0.02-1.88-0.45-2.58-2.46-2.55c-8.33,0.11-16.65,0.11-24.98,0
	c-2.08-0.03-2.7,0.6-2.67,2.67c0.1,8.13-0.11,16.26,0.1,24.38c0.14,5.37-1.66,9.22-6.86,11.16c-1.39,0-2.78,0-4.17,0
	c-5.22-1.89-7.07-5.74-6.94-11.1c0.18-7.82-0.07-15.66,0.11-23.48c0.06-2.74-0.48-3.79-3.5-3.67c-6.63,0.25-13.27,0.1-19.91,0.07
	c-6.5-0.03-10.12-3.65-10.15-10.14c-0.03-6.84-0.12-13.68,0.05-20.51c0.06-2.44-0.8-2.95-3.03-2.91c-8.02,0.12-16.05-0.1-24.07,0.1
	c-5.38,0.13-9.23-1.71-11.12-6.93c0-1.39,0-2.78,0-4.17c1.93-5.2,5.78-7,11.16-6.86c8.12,0.21,16.25-0.01,24.38,0.1
	c2.06,0.03,2.7-0.58,2.68-2.67c-0.11-8.32-0.11-16.65,0-24.98c0.03-2.02-0.67-2.48-2.55-2.46c-8.13,0.09-16.26-0.16-24.38,0.1
	c-5.38,0.17-9.2-1.62-11.28-6.69c0-1.59,0-3.17,0-4.76c2.29-5.08,6.31-6.71,11.71-6.54c7.91,0.26,15.83,0.01,23.75,0.1
	c1.92,0.02,2.8-0.28,2.76-2.52c-0.13-8.31-0.13-16.63,0-24.94c0.04-2.23-0.83-2.55-2.76-2.53c-7.92,0.09-15.84-0.15-23.75,0.1
	c-5.38,0.17-9.43-1.45-11.71-6.54c0-1.59,0-3.17,0-4.76c2.07-5.08,5.9-6.86,11.28-6.69c8.12,0.26,16.25,0.02,24.38,0.1
	c1.88,0.02,2.58-0.44,2.56-2.46c-0.11-8.32-0.11-16.65,0-24.98c0.03-2.09-0.61-2.7-2.67-2.67c-8.13,0.1-16.26-0.11-24.38,0.1
	C103.39,187.38,99.52,185.59,97.59,180.39z M153.62,250.04c0,31.04,0.04,62.09-0.06,93.13c-0.01,2.65,0.69,3.28,3.3,3.27
	c62.09-0.08,124.18-0.08,186.27,0c2.65,0,3.27-0.69,3.27-3.3c-0.08-62.09-0.08-124.18,0-186.27c0-2.65-0.69-3.27-3.29-3.27
	c-62.09,0.08-124.18,0.08-186.27,0c-2.65,0-3.28,0.69-3.27,3.3C153.66,187.95,153.62,219,153.62,250.04z"/>
</svg>
